<?xml version="1.0" encoding="UTF-8"?>
<svg id="Layer_1" xmlns="http://www.w3.org/2000/svg" version="1.1" viewBox="0 0 5400 4123">
  <!-- Generator: Adobe Illustrator 29.8.2, SVG Export Plug-In . SVG Version: 2.1.1 Build 3)  -->
  <defs>
    <style>
      .st0 {
        fill: #096007;
      }

      .st1 {
        fill: #bdd143;
      }
    </style>
  </defs>
  <path class="st0" d="M2652,76l19.95-19.97c.66,32.59,20.97,55.62,31.17,82.85,77.71,207.45,136.2,421.21,203.73,632.27,26.01,81.28,53.51,162.26,81,243.04,5.64,9.39,32.34-2.72,41.21-7.14,6.24-3.11,50.16-34.05,50.94-37.1-1.71-18.23-41.81-15.11-46.28-21.67-2.89-10.52-1.03-21.05-4.33-31.67-2.87-9.22-12.95-15.84-13.24-22.4s5.58-12.6,6.11-18.05c1.07-10.95-1.72-24.18,1.73-36.14l-35.97,3.96.54-11.46c1.14-1.8,27.14-9.5,31.51-14.46,5.69-6.45,3.48-16.84,7.06-24.94,19.39-43.87,49.41-66.83,99-61.24,3.9.44,27.18,6.78,29.88,8.12,5.48,2.72,2.78,5.38,4,8,7.98,17.14,17.01,24.13,26.14,48.07,2.36,6.2-1.2,14.3,9.86,11.93.3,2.59-.08,5.37,0,8l-7.99-.03-3.07,37.69,3.07,2.34c-1.49,3.7-1.48,8.05-4,12h-16.02c-.24,2.65.21,5.36.02,8-.09,1.32.04,2.67,0,4-14.02,5.47-6.92,39.18-2.94,48.94,5.01,12.32,15.51,15.74,26.94,19.06,1.18.34,2.68-.28,4,0v7.99h8c.37.63,2.87-.55,4,0,19.02,33.59,39.2,52.48,39.18,94-.02,48.42-23.77,116.08-30.98,164.2-13.13,87.66,10.05,136.49-68.15,199.85-14.94,12.11-31.63,25.73-52.05,21.95v218c0,3.6-7.13,14.56-4.1,21.96-2.62.39-5.26,0-7.9.04,1-78.59-.74-157.42,0-236.02-8.54-.44-21.4-1.46-26.01,8-6.94,14.23,4.82,85.09,5.98,106.06,2.18,39.63-1.45,82.05,7.92,120.22,3.83,2.19,7.94,1.79,12.12,1.74-.03,1.97-3.91,5.93-3.21,13.05,1.33,13.39,13.36,7.01,11.18,18.93l-15.94-3.97-.06,11.97c7.76.12,18.77-.51,25.4,3.68,1.62,1.02,20.1,30.02,20.82,32.14,8.12,23.86,9.82,58.62,16.44,83.56,8.12,30.59,24.16,94.55,35.45,120.55,5.64,12.99,48.73,40.42,50.12,54.28,2.87,28.72-61.75,21.73-64.36,32.44,2.62,51.41,11.98,102.16,16.16,153.37,1.58,19.39,8.22,65.61,4.05,81.15-2.95,10.99-28.05,13.61-38.28,3.06-13.13-13.55-13.38-75.89-21.77-96.21l-28.53-143.48-27.47-.5c-2.98,2.95,11.71,38.59-1.2,54.83-25.34,31.88-79.73,12.99-81.84-25.9-.97-17.93,16.62-29.55,13.46-41.05-5.15-16.46-29.65-20.07-30.45-38.26-.75-17.16,27.19-33.36,31.08-48.59,4.26-16.7-1.66-38.01,8.02-55.98,6.75-12.53,24.2-14.16,29.96-26.04,5.72-11.8,9.33-49.81,10.94-65.04,2.42-22.75-7.36-29.72,15.5-44.7l-23.49-277.26-48.01,33.95c-6.98,7.18-16.81,14.51-19.12,24.88-5.43,24.36-2.06,64.42-5.33,90.67-6.69,53.79-32.22,119.07-31.49,172.46.23,16.77,17.8,71.05,11.31,81.39-16.87,13.09-36.15,9.24-52.45,13.5-22.84,5.97-52.22,20.26-73.82,26.17-36.4,9.95-92.61,4.96-57.04-43.92,14.31-19.67,38.15-22.43,47.8-33.31,11.96-13.5,28.83-53.69,32-72,3.78-21.84.67-49.42,8.32-71.88-2.58-25.93-40.55,15.46-48.04,24.16-8.64,10.03-19.12,32.6-28.27,39.73-6.69,5.2-16.61,4.88-21.79,10.21-11.83,12.17-19.54,53.21-26.43,65.57-6,10.76-25.59,15.91-30.76,29.24l-.95,227.06c-1.95,15.98-17.28,11.58-27.88,18.12l-645.4,131.65-5.87-12.55c20.22-84.98,43.71-170.52,55.07-256.84-2.18-14.14-19.27-28.64-29.92-38.14-95.58-85.27-214.48-167.09-315.77-248.23-65.35-52.35-129.04-107.28-194.11-159.89l-4.15-4.15-3.85-3.85c-1.97-1.6-6.72-3.7-12-8-5.24-4.17,0,0-8-8-9.45-7.71-21.62-15.6-32-24-14.44-27.38-2.61-28.7,16-44,16.27-15.68,3.34-5.17,19.51-18.5,2.16-1,6.55-4.05,8.48-5.5,30.72-22.41,86.83-56.9,86.57-97.32l-106.58-378.68,330,63.18c42.98-2.29,54.17-17.79,71.31-51.65,6.92-8.74,6.96-8.47,9.96-14.06,8.36-15.55,11.06-26.5,16.73-41.48,6.61-17.49,16.83-72.01,41.26-68.02l254.92,249.84c27.42,18.2,72.12-5.11,67.49-39.21l-135.35-648.07,9.22-6.2c15.28,9.02,31.55,20.95,46.89,29.22,43.52,23.46,125.13,76.02,166.88,89.12,21.84,6.85,33.92,8.46,54.79-2.58,24.51-12.97,59.72-85.92,74.59-113.42,53.58-99.12,105.98-199.46,151.31-302.69h-.04ZM2968.02,1028l-275.98-852-.02,772.01c19.24-1.29,46.48-8.59,65.14-3.17,6.86,1.99,22.56,17.85,34.06,21.94,15.03,5.35,30.93,3.44,45.08,10.92,11.44,6.06,12.81,15.06,22.26,21.74,13.73,9.71,99.76,38,109.46,28.55h0ZM2766.51,1012.3c-35.85,10.44,51.6,70.58,56.05,83.15,32.72,14.22,67.58,41.26,102.23,49.82,5.34,1.32,17.28,5.63,19.2-3.33.48-2.23-24.08-32.81-27.77-36.15-23.86-21.54-76.98-52.71-105.33-66.67-12.12-5.97-26.84-31.93-44.37-26.82h0ZM2814.47,1137.57c-15.51-11.94-27.92-11.14-36.76-17.28-5.69-3.95-11.12-19.12-18.08-25.92-6.77-6.62-54.6-35.48-60.84-33.97-4.14,1-8.74,6.28-9.97,10.43l3.2,593.15c20.24,2.68,22.66-20.01,31.89-30.07,48.41-52.73,71.69-95.71,109.76-154.24,35.71-54.91,73.28-107.2,108.65-163.35,7.71-12.25,48.89-62.4,49.66-66.47,2.15-11.44-.55-26.37-10.27-33.78-5.62-1.21-21.72,16.12-29.63,18.32-11.33,3.15-70.72-38.83-83.75-48.72-17.9-13.57-36.42-34.67-53.86-48.1h0ZM3035.41,1968.56c-14.09-8.95-41.54,7.85-29.47,27.48,14.71,23.92,42.84-18.99,29.47-27.48ZM3163.13,1984.92c-4.38-2.37-10.23-.54-15.11-.93-2.59,21.21,2.74,26.58,23.96,23.98,2.61-2.41-6.28-21.66-8.85-23.05h0ZM3051.96,2027.98v-7.96h-3.92v7.96h3.92ZM3058,2032v4c2.6-1.33,2.6-2.67,0-4ZM3022.65,2052.56c-19.4,5.02-7.8,30.15,7.23,27.43,8.92-1.61,11.03-32.15-7.23-27.43Z"/>
  <path class="st1" d="M3208,956c15.05,7.28,25.16,25,39.93,18.04,25.66-16.07,164.54-170.17,178.13-170.28,7.46-.06,12.26,11.02,15.46,16.72,17.91,31.91,55.15,131.66,81.09,146.92,5.47,3.22,14.14,6.59,20.35,7.64,49.74,8.48,190.67-34.19,248.21-45.87,14.02-2.85,100.78-21.18,104.85-17.19,5.94,50.34-24.07,93.1-38.69,139.34-17.73,56.05-37.66,123.09-52.19,179.81-6.98,27.25-20.65,63.44-8.23,89.95,11.34,24.2,101.07,75.04,127.14,100.86,6.44,6.38,12.14,9.62,12.38,20.09l-78.5,73.87c-180.76,138.18-354.97,284.22-529.95,430.07-6.99,9.7-8.15,19.78-7.64,31.36,2.9,65.77,40.14,153.66,50.71,221.58,1.51,9.7,1.13,19.36.96,29.08l-196.01-32.01c-4.18-51.21-13.54-101.95-16.16-153.37,2.61-10.7,67.23-3.72,64.36-32.44-1.39-13.86-44.48-41.28-50.12-54.28-11.29-26-27.32-89.96-35.45-120.55-6.62-24.94-8.33-59.7-16.44-83.56-.72-2.12-19.21-31.12-20.82-32.14-6.63-4.19-17.64-3.56-25.4-3.68l.06-11.97,15.94,3.97c2.18-11.93-9.84-5.54-11.18-18.93-.71-7.12,3.18-11.08,3.21-13.05-4.18.05-8.29.45-12.12-1.74-9.36-38.17-5.74-80.6-7.92-120.22-1.15-20.97-12.91-91.83-5.98-106.06,4.61-9.45,17.48-8.44,26.01-8-.74,78.6,1.01,157.43,0,236.02,2.64-.03,5.28.35,7.9-.04-3.03-7.41,4.1-18.37,4.1-21.96v-218c20.42,3.78,37.11-9.84,52.05-21.95,78.2-63.36,55.02-112.19,68.15-199.85,7.21-48.12,30.96-115.78,30.98-164.2.02-41.52-20.16-60.4-39.18-94v.02Z"/>
  <path class="st1" d="M3724,3500h-134c-.71,0-10-9.29-10-10v-286l-12.05,5.95-98.27,273.73c-9.44,15.54-65.17,24.47-74.56,3.2-33.65-80.35-55.31-167.6-88.12-247.88-4.73-11.57-9.06-34.6-23-35v296h-142l-6-6v-486l202.31-.31,85.67,237.55c-.6,4.41,7.74,3.57,10.01,2.87,12.24-3.79,74.08-214.3,88.56-240.47,10.21-7.41,95.41-3.04,115.62-3.47,13.69-.29,89.84-13.66,89.84,5.84v480c0,1.32-5.3,6.07-4,10h-.01Z"/>
  <path class="st0" d="M1157.18,2395.49c25.9.18,39.64.11,60.66.68,83.83,2.26,178.22-5.63,259.74,4.26,128.71,15.61,168.1,184.89,46.5,241.58,31.77,18.24,59.68,33.93,73.88,70.04,26.87,68.3.38,150.75-70.02,177.91-55.94,21.58-130.75,8.93-190.11,9.89-56.57.92-119.31,11.19-176.03,4.36-4.29-.52-9.21.16-12.06-3.94-5.09-167.95-8.75-336.46-4-504.51M1302.81,2520.81c-16.88,4.97-14.02,63.44-4.25,66.64,29.15-3.9,110.2,8.78,131.64-3.24,22.09-12.39,18.34-54.79-5.99-62.41-10.58-3.31-111.11-4.02-121.4-.99ZM1296,2714v60c3.51,5.71,7.97,5.52,13.8,6.2,22.38,2.63,94.51,2.96,115.98-.43,39.83-6.29,41.14-63.19-4.73-70.81-22.16-3.68-88.44-3.84-111.24-1.16-5.82.68-10.28.5-13.8,6.2h-.01Z"/>
  <path class="st1" d="M4234.63,3037.36c34.6,37.46,41.04,88.66,24.47,135.73-1.51,4.28-14.93,32.43-16.27,33.73-2.5,2.44-9.31,2.05-12.79,5.04-5.5,4.73-31.26,25.18-30.03,30.08,74.45,32.53,97.74,114.97,62.82,186.88-25.2,51.88-70.76,66.21-124.87,71.13l-318.01-1.91c-7.2-6.43-7.35-14.97-8.14-23.86-6.33-70.77.02-149.65,0-220.03-.03-71.51-6.76-163.74-.04-232.39,1.3-13.3,2.09-21.17,18.05-21.95,99.37,5.38,200.48-5.49,299.51-2.3,34.14,1.1,81.59,14.17,105.31,39.85h-.01ZM3964,3126v58c32.63,2.68,118.7,14.15,142.25-7.75,23.92-22.25,7.38-52.07-20.52-55.99-21.95-3.08-85.62-3.08-107.93-.46-5.82.68-10.28.5-13.8,6.2ZM3970,3380h124c6.81,0,25.19-11.52,29.11-18.86,14.63-27.44-4.58-52.58-33.47-56.77-17.42-2.52-103.77-2.91-117.93,1.52-3.21,1-7.09,1.01-7.68,5.04l.59,62.46,5.39,6.62h-.01Z"/>
  <path class="st0" d="M3316,2398c3.13-10.15,71.58-5.74,86.17-5.84,22.75-.15,47.93-8.12,72.12,3.55l161.51,237.65,12.19,2.65.02-248.02h146l2.25,498.25c-27.19,3.7-54.86,1.12-82.21,1.79-55.14,1.34-48.59,18.54-85.3-30.78-53.98-72.53-100.18-151.7-152.81-225.23-3.27-2.28-11.93,3.87-11.93,5.97v248l-6,6h-136l-6-6v-488h-.01Z"/>
  <path class="st0" d="M3114,2396c126.62,17.12,178.11,182.34,101.9,277.9-16.05,20.13-38.81,28.73-51.84,47.97,17.93,49.77,60.44,102.42,76.81,151.24,2.14,6.4,4.31,11.86,3.13,18.86-54.39,1.97-110.43,10.56-164.07-1.92-20.21-25.52-48.08-134.29-65.89-150.11-10.19-9.05-43.35-1.56-58.05-3.95v154l-6,6h-142l2-500h304.01ZM2952,2526v76c0,.69,6.17,7.06,8.06,7.94,10.71,5.01,80.75,2.81,96.16.28,25.49-4.18,43.17-16.79,44.13-44.18,2.32-66.27-96.98-46.39-138.35-46.04l-10,6h0Z"/>
  <path class="st0" d="M1717.4,2834.6c-53.67-52-79.35-134.78-73.54-208.74,25.84-328.87,573.75-308.22,544.08,52.08-18.59,225.74-317.59,304.86-470.54,156.66h0ZM1895.03,2525.04c-145.96,19.77-131.37,273.6,42.63,250.62,144.7-19.11,127.87-273.72-42.63-250.62Z"/>
  <path class="st0" d="M2572,2396h146l6,6v316c0,250.92-480,253.88-480,4v-320l6-6h140l6,6v304c0,1.69,10.58,28.04,12.58,31.42,25.82,43.73,98.63,49.47,135.5,16.66,11.9-10.59,27.92-36.51,27.92-52.08v-306h0Z"/>
  <path class="st0" d="M4042,2508c-1.96.32-9.55,4.28-10.14,6.75,2.49,11.91-5.88,52.58,6.7,56.7,45.11.04,90.5,1.85,135.61.72,25.74-.64,62.03-12.82,85.84,1.84v112c-6.1,7.11-12.92,9.03-21.92,10.08-61.8,7.22-136.29-6.01-199.52.48-10.6,3.47-8.54,61.71-2.81,65.7l228.25-2.25v122l-6,6h-374v-500c104.32-8.77,209.52-.82,314.16-3.83,20.01-.58-18.12.42,65.84,1.83v116l-6,6h-216v-.02Z"/>
  <path class="st1" d="M2652,76c3.65-8.32,15.13-39.64,19.95-42.16,27.3-14.32,38.69,41,47.33,56.88,15.73,28.91,35.95,55.31,51.99,84.01,50.9,91.04,100.09,201.34,156.69,287.31,42.11,63.96,93.48,14.4,137.83-10.23,27.13-15.07,54.9-28.68,80.95-43.07,10.51-5.81,75-47.12,81.23-40.72l-71.98,371.99c-2.71-1.34-25.98-7.68-29.88-8.12-49.59-5.59-79.61,17.37-99,61.24-3.58,8.1-1.38,18.49-7.06,24.94-4.38,4.97-30.38,12.66-31.51,14.46l-.54,11.46,35.97-3.96c-3.45,11.96-.66,25.19-1.73,36.14-.53,5.45-6.39,11.81-6.11,18.05.29,6.57,10.38,13.19,13.24,22.4,3.3,10.62,1.44,21.15,4.33,31.67,4.47,6.57,44.57,3.44,46.28,21.67-.77,3.05-44.7,34-50.94,37.1-8.87,4.42-35.56,16.53-41.21,7.14-27.5-80.79-55-161.76-81-243.04-67.53-211.06-126.02-424.83-203.73-632.27-10.2-27.23-30.51-50.26-31.17-82.85l-19.95,19.97h.02Z"/>
  <path class="st1" d="M2402.34,3069.79c13.79,13.7,55.61,62.7,37.75,80.33l-113.57,49.34c-36.75-53.56-86.86-88.81-152.78-59.71-91.33,40.32-95.64,188.27-5.28,233.8,44.08,22.21,89.67,16.71,127.16-15.93,8.69-7.57,25.59-37.02,34.45-37.87l117.64,48.6c-59.53,182.3-330.01,190.87-441.75,51.7-59.03-73.52-68.83-205.64-22.63-286.72,81.35-142.76,300.44-181.32,419.02-63.54h0Z"/>
  <path class="st1" d="M2664,2108c10.6-6.53,25.93-2.14,27.88-18.12l.95-227.06c5.17-13.33,24.76-18.49,30.76-29.24,6.89-12.35,14.6-53.4,26.43-65.57,5.18-5.33,15.11-5,21.79-10.21,9.15-7.13,19.64-29.69,28.27-39.73,7.49-8.7,45.46-50.09,48.04-24.16-7.65,22.46-4.54,50.04-8.32,71.88-3.17,18.31-20.04,58.5-32,72-9.64,10.89-33.49,13.65-47.8,33.31-35.56,48.88,20.64,53.87,57.04,43.92,21.61-5.9,50.99-20.19,73.82-26.17,16.3-4.26,35.59-.41,52.45-13.5,6.49-10.35-11.08-64.62-11.31-81.39-.73-53.39,24.8-118.67,31.49-172.46,3.27-26.25-.1-66.31,5.33-90.67,2.31-10.37,12.14-17.7,19.12-24.88l48.01-33.95,23.49,277.26c-22.86,14.98-13.08,21.95-15.5,44.7-1.62,15.23-5.22,53.24-10.94,65.04-5.76,11.88-23.21,13.51-29.96,26.04-9.68,17.98-3.76,39.28-8.02,55.98-3.88,15.24-31.83,31.43-31.08,48.59.8,18.19,25.3,21.81,30.45,38.26,3.16,11.5-14.43,23.12-13.46,41.05,2.11,38.88,56.5,57.77,81.84,25.9,12.91-16.23-1.79-51.87,1.2-54.83l27.47.5,28.53,143.48-398.49-75.51-57.51-.49.03.03Z"/>
  <path class="st1" d="M2648,3008l1.76,364.23c2.45,3.43,16,6.12,20.87,6.31,43.3,1.7,98.85-1.37,143.55-2.34,10.17-.22,19.39-8.09,25.82,1.8v108c0,.52-4.26,8.89-4.82,9.24-62.27,8.82-126.3,3.92-189.34,4.59-24.23.26-128.77,12.48-140.07-3.59l-1.77-488.23h144Z"/>
  <path class="st1" d="M1802.63,3209.36c24.8,27.78,44.4,75.19,45.54,112.43,8.02,261.27-426.46,262.9-387.14-30.75,20.11-150.16,244.98-189.93,341.6-81.68ZM1630.95,3240.95c-74.15,12.6-89.38,122.6-32.37,166.47,47.7,36.71,130.79,12.25,141.18-49.67,12.02-71.62-33.8-129.55-108.8-116.8h-.01Z"/>
  <path class="st1" d="M3052,3008v486l-6,6h-132c-.91,0-10-12.49-10-14v-478c12.17,4.23,148-7.79,148,0Z"/>
  <path class="st1" d="M1444,3156v88c-31,7.43-59.73-3.33-91.78,4.23l-1.96,256.02c-4.71,6.76-98.18,9.58-104.58-.14,1.57-5.94-1.67-14.26-1.67-18.11v-238h-90l-6-6v-80c0-1.08,7.64-8.47,10.46-9.03l285.54,3.03h-.01Z"/>
  <path class="st1" d="M1932,3016l-1.75,24.26-12.06,3.93h-760.39c-17.8.85-13.93-14.77-13.81-28.19h788.01Z"/>
  <path class="st1" d="M3168,880c-.4,13.03-1.23,26.65,2.66,39.35,5.34,17.43,18.67,14.55,21.34,28.65-11.43-3.32-21.94-6.74-26.94-19.06-3.97-9.77-11.08-43.48,2.94-48.94Z"/>
  <path class="st1" d="M3196,808c-11.06,2.37-7.5-5.73-9.86-11.93-9.13-23.94-18.16-30.94-26.14-48.07,20.76,6.01,33.78,40.66,36,60Z"/>
  <path class="st1" d="M3196,816c.65,20.45-1.04,22.67-8,40l-3.07-2.34,3.07-37.69,7.99.03h.01Z"/>
  <path class="st1" d="M3184,868c-4.47,6.99-6.54,9.01-16,8,.19-2.64-.26-5.35-.02-7.99h16.02Z"/>
  <path class="st1" d="M3196,948c14.1,3.02,4.2,1.5,8,8h-7.99v-8h-.01Z"/>
  <path class="st1" d="M2968.02,1028c-9.7,9.45-95.73-18.85-109.46-28.55-9.45-6.68-10.82-15.69-22.26-21.74-14.15-7.49-30.05-5.58-45.08-10.92-11.5-4.09-27.2-19.95-34.06-21.94-18.66-5.42-45.9,1.88-65.14,3.17l.02-772.01,275.98,852h0Z"/>
  <path class="st1" d="M2814.47,1137.57c17.45,13.43,35.97,34.53,53.86,48.1,13.04,9.89,72.43,51.87,83.75,48.72,7.91-2.2,24.01-19.53,29.63-18.32,9.72,7.42,12.42,22.35,10.27,33.78-.77,4.08-41.94,54.23-49.66,66.47-35.37,56.14-72.94,108.44-108.65,163.35-38.07,58.53-61.35,101.51-109.76,154.24-9.23,10.05-11.66,32.75-31.89,30.07l-3.2-593.15c1.24-4.15,5.84-9.43,9.97-10.43,6.23-1.51,54.07,27.35,60.84,33.97,6.96,6.8,12.39,21.98,18.08,25.92,8.84,6.14,21.25,5.34,36.76,17.28h0Z"/>
  <path class="st1" d="M2766.51,1012.3c17.53-5.11,32.26,20.85,44.37,26.82,28.34,13.96,81.47,45.13,105.33,66.67,3.7,3.34,28.25,33.92,27.77,36.15-1.92,8.96-13.86,4.65-19.2,3.33-34.65-8.56-69.51-35.61-102.23-49.82-4.44-12.57-91.9-72.71-56.05-83.15h0Z"/>
  <path class="st1" d="M3035.41,1968.56c13.37,8.5-14.77,51.4-29.47,27.48-12.07-19.63,15.39-36.44,29.47-27.48Z"/>
  <path class="st1" d="M3022.65,2052.56c18.25-4.72,16.15,25.82,7.23,27.43-15.03,2.71-26.63-22.42-7.23-27.43Z"/>
  <path class="st1" d="M3163.13,1984.92c2.57,1.39,11.46,20.64,8.85,23.05-21.22,2.6-26.55-2.77-23.96-23.98,4.88.39,10.73-1.44,15.11.93h0Z"/>
  <rect class="st1" x="3048.04" y="2020.02" width="3.92" height="7.96"/>
  <path class="st1" d="M3058,2032c2.6,1.33,2.6,2.67,0,4v-4Z"/>
</svg>