<?xml version="1.0" encoding="UTF-8"?>
<svg id="Layer_1" xmlns="http://www.w3.org/2000/svg" version="1.1" viewBox="0 0 1898.08 1693.98">
  <!-- Generator: Adobe Illustrator 29.8.2, SVG Export Plug-In . SVG Version: 2.1.1 Build 3)  -->
  <defs>
    <style>
      .st0 {
        fill: #096007;
      }

      .st1 {
        fill: #bdd143;
      }
    </style>
  </defs>
  <path class="st0" d="M934.51,95.25l14.17-14.18c.47,23.14,14.89,39.49,22.13,58.83,55.18,147.3,96.71,299.07,144.66,448.93,18.47,57.71,37.99,115.21,57.51,172.57,4,6.67,22.96-1.93,29.26-5.07,4.43-2.21,35.62-24.18,36.17-26.34-1.21-12.94-29.69-10.73-32.86-15.39-2.05-7.47-.73-14.95-3.07-22.49-2.04-6.55-9.19-11.25-9.4-15.9s3.96-8.95,4.34-12.82c.76-7.77-1.22-17.17,1.23-25.66l-25.54,2.81.38-8.14c.81-1.28,19.27-6.75,22.37-10.27,4.04-4.58,2.47-11.96,5.01-17.71,13.77-31.15,35.08-47.45,70.29-43.48,2.77.31,19.3,4.81,21.22,5.77,3.89,1.93,1.97,3.82,2.84,5.68,5.67,12.17,12.08,17.13,18.56,34.13,1.68,4.4-.85,10.15,7,8.47.21,1.84-.06,3.81,0,5.68l-5.67-.02-2.18,26.76,2.18,1.66c-1.06,2.63-1.05,5.72-2.84,8.52h-11.37c-.17,1.88.15,3.81.01,5.68-.06.94.03,1.9,0,2.84-9.95,3.88-4.91,27.82-2.09,34.75,3.56,8.75,11.01,11.18,19.13,13.53.84.24,1.9-.2,2.84,0v5.67h5.68c.26.45,2.04-.39,2.84,0,13.5,23.85,27.83,37.26,27.82,66.74-.01,34.38-16.88,82.42-22,116.59-9.32,62.24,7.14,96.91-48.39,141.9-10.61,8.6-22.46,18.27-36.96,15.59v154.79c0,2.56-5.06,10.34-2.91,15.59-1.86.28-3.73,0-5.61.03.71-55.8-.53-111.77,0-167.58-6.06-.31-15.19-1.04-18.47,5.68-4.93,10.1,3.42,60.42,4.25,75.31,1.55,28.14-1.03,58.26,5.62,85.36,2.72,1.55,5.64,1.27,8.61,1.24-.02,1.4-2.78,4.21-2.28,9.27.94,9.51,9.49,4.98,7.94,13.44l-11.32-2.82-.04,8.5c5.51.09,13.33-.36,18.03,2.61,1.15.72,14.27,21.32,14.78,22.82,5.77,16.94,6.97,41.62,11.67,59.33,5.77,21.72,17.15,67.13,25.17,85.59,4,9.22,34.6,28.7,35.59,38.54,2.04,20.39-43.84,15.43-45.7,23.03,1.86,36.5,8.51,72.54,11.47,108.9,1.12,13.77,5.84,46.59,2.88,57.62-2.09,7.8-19.92,9.66-27.18,2.17-9.32-9.62-9.5-53.88-15.46-68.31l-20.26-101.88-19.5-.36c-2.12,2.09,8.31,27.4-.85,38.93-17.99,22.64-56.61,9.22-58.11-18.39-.69-12.73,11.8-20.98,9.56-29.15-3.66-11.69-21.05-14.25-21.62-27.17-.53-12.18,19.31-23.69,22.07-34.5,3.02-11.86-1.18-26.99,5.69-39.75,4.79-8.9,17.18-10.05,21.27-18.49,4.06-8.38,6.62-35.37,7.77-46.18,1.72-16.15-5.23-21.1,11.01-31.74l-16.68-196.86-34.09,24.11c-4.96,5.1-11.94,10.3-13.58,17.67-3.86,17.3-1.46,45.74-3.78,64.38-4.75,38.19-22.88,84.54-22.36,122.45.16,11.91,12.64,50.45,8.03,57.79-11.98,9.29-25.67,6.56-37.24,9.59-16.22,4.24-37.08,14.39-52.41,18.58-25.85,7.06-65.76,3.52-40.5-31.18,10.16-13.97,27.09-15.93,33.94-23.65,8.49-9.59,20.47-38.12,22.72-51.12,2.68-15.51.48-35.09,5.91-51.04-1.83-18.41-28.79,10.98-34.11,17.15-6.13,7.12-13.58,23.15-20.07,28.21-4.75,3.69-11.79,3.46-15.47,7.25-8.4,8.64-13.87,37.78-18.77,46.56-4.26,7.64-18.17,11.3-21.84,20.76l-.67,161.22c-1.38,11.35-12.27,8.22-19.8,12.87l-458.26,93.48-4.17-8.91c14.36-60.34,31.04-121.08,39.1-182.37-1.55-10.04-13.68-20.34-21.24-27.08-67.87-60.54-152.29-118.64-224.21-176.25-46.4-37.17-91.62-76.17-137.83-113.53l-2.95-2.95-2.73-2.73c-1.4-1.14-4.77-2.63-8.52-5.68-3.72-2.96,0,0-5.68-5.68-6.71-5.47-15.35-11.08-22.72-17.04-10.25-19.44-1.85-20.38,11.36-31.24,11.55-11.13,2.37-3.67,13.85-13.14,1.53-.71,4.65-2.88,6.02-3.91,21.81-15.91,61.65-40.4,61.47-69.1l-75.68-268.88,234.31,44.86c30.52-1.63,38.46-12.63,50.63-36.67,4.91-6.21,4.94-6.01,7.07-9.98,5.94-11.04,7.85-18.82,11.88-29.45,4.69-12.42,11.95-51.13,29.3-48.3l181,177.4c19.47,12.92,51.21-3.63,47.92-27.84l-96.1-460.15,6.55-4.4c10.85,6.4,22.4,14.88,33.29,20.75,30.9,16.66,88.85,53.98,118.49,63.28,15.51,4.86,24.08,6.01,38.9-1.83,17.4-9.21,42.4-61.01,52.96-80.53,38.04-70.38,75.25-141.62,107.44-214.92h-.03,0ZM1158.9,771.21l-195.96-604.95v548.15c13.65-.92,32.99-6.1,46.24-2.25,4.87,1.41,16.02,12.67,24.18,15.58,10.67,3.8,21.96,2.44,32.01,7.75,8.12,4.3,9.1,10.69,15.81,15.44,9.75,6.89,70.83,26.98,77.72,20.27h0ZM1015.82,760.06c-25.45,7.41,36.64,50.11,39.8,59.04,23.23,10.1,47.98,29.3,72.59,35.37,3.79.94,12.27,4,13.63-2.36.34-1.58-17.1-23.3-19.72-25.67-16.94-15.29-54.66-37.43-74.79-47.34-8.61-4.24-19.06-22.67-31.5-19.04h0ZM1049.87,849.01c-11.01-8.48-19.82-7.91-26.1-12.27-4.04-2.8-7.9-13.58-12.84-18.4-4.81-4.7-38.77-25.19-43.2-24.12-2.94.71-6.21,4.46-7.08,7.41l2.27,421.16c14.37,1.9,16.09-14.21,22.64-21.35,34.37-37.44,50.9-67.96,77.93-109.52,25.36-38.99,52.03-76.12,77.15-115.98,5.47-8.7,34.71-44.31,35.26-47.2,1.53-8.12-.39-18.72-7.29-23.99-3.99-.86-15.42,11.45-21.04,13.01-8.04,2.24-50.21-27.57-59.47-34.59-12.71-9.64-25.86-24.62-38.24-34.15h0ZM1206.74,1439.04c-10-6.35-29.49,5.57-20.92,19.51,10.44,16.98,30.42-13.48,20.92-19.51ZM1297.43,1450.66c-3.11-1.68-7.26-.38-10.73-.66-1.84,15.06,1.95,18.87,17.01,17.03,1.85-1.71-4.46-15.38-6.28-16.37h0ZM1218.5,1481.23v-5.65h-2.78v5.65h2.78ZM1222.78,1484.08v2.84c1.85-.94,1.85-1.9,0-2.84ZM1197.68,1498.68c-13.77,3.56-5.54,21.41,5.13,19.48,6.33-1.14,7.83-22.83-5.13-19.48Z"/>
  <path class="st1" d="M1329.29,720.09c10.69,5.17,17.86,17.75,28.35,12.81,18.22-11.41,116.83-120.83,126.48-120.9,5.3-.04,8.71,7.82,10.98,11.87,12.72,22.66,39.16,93.48,57.58,104.32,3.88,2.29,10.04,4.68,14.45,5.42,35.32,6.02,135.38-24.28,176.24-32.57,9.95-2.02,71.56-15.04,74.45-12.21,4.22,35.74-17.09,66.1-27.47,98.94-12.59,39.8-26.74,87.4-37.06,127.67-4.96,19.35-14.66,45.04-5.84,63.87,8.05,17.18,71.76,53.28,90.27,71.61,4.57,4.53,8.62,6.83,8.79,14.26l-55.74,52.45c-128.35,98.11-252.04,201.81-376.28,305.37-4.96,6.89-5.79,14.04-5.42,22.27,2.06,46.7,28.5,109.1,36.01,157.33,1.07,6.89.8,13.75.68,20.65l-139.17-22.73c-2.97-36.36-9.61-72.39-11.47-108.9,1.85-7.6,47.74-2.64,45.7-23.03-.99-9.84-31.58-29.31-35.59-38.54-8.02-18.46-19.4-63.87-25.17-85.59-4.7-17.71-5.91-42.39-11.67-59.33-.51-1.51-13.64-22.1-14.78-22.82-4.71-2.98-12.52-2.53-18.03-2.61l.04-8.5,11.32,2.82c1.55-8.47-6.99-3.93-7.94-13.44-.5-5.06,2.26-7.87,2.28-9.27-2.97.04-5.89.32-8.61-1.24-6.65-27.1-4.08-57.23-5.62-85.36-.82-14.89-9.17-65.2-4.25-75.31,3.27-6.71,12.41-5.99,18.47-5.68-.53,55.81.72,111.78,0,167.58,1.87-.02,3.75.25,5.61-.03-2.15-5.26,2.91-13.04,2.91-15.59v-154.79c14.5,2.68,26.35-6.99,36.96-15.59,55.52-44.99,39.07-79.66,48.39-141.9,5.12-34.17,21.98-82.21,22-116.59.01-29.48-14.31-42.89-27.82-66.74h0s0,.01,0,.01Z"/>
  <path class="st1" d="M4522.75,1558.77h-134c-.71,0-10-9.29-10-10v-286l-12.05,5.95-98.27,273.73c-9.44,15.54-65.17,24.47-74.56,3.2-33.65-80.35-55.31-167.6-88.12-247.88-4.73-11.57-9.06-34.6-23-35v296h-142l-6-6v-486l202.31-.31,85.67,237.55c-.6,4.41,7.74,3.57,10.01,2.87,12.24-3.79,74.08-214.3,88.56-240.47,10.21-7.41,95.41-3.04,115.62-3.47,13.69-.29,89.84-13.66,89.84,5.84v480c0,1.32-5.3,6.07-4,10h-.01Z"/>
  <path class="st0" d="M1955.93,454.26c25.9.18,39.64.11,60.66.68,83.83,2.26,178.22-5.63,259.74,4.26,128.71,15.61,168.1,184.89,46.5,241.58,31.77,18.24,59.68,33.93,73.88,70.04,26.87,68.3.38,150.75-70.02,177.91-55.94,21.58-130.75,8.93-190.11,9.89-56.57.92-119.31,11.19-176.03,4.36-4.29-.52-9.21.16-12.06-3.94-5.09-167.95-8.75-336.46-4-504.51M2101.56,579.58c-16.88,4.97-14.02,63.44-4.25,66.64,29.15-3.9,110.2,8.78,131.64-3.24,22.09-12.39,18.34-54.79-5.99-62.41-10.58-3.31-111.11-4.02-121.4-.99ZM2094.75,772.77v60c3.51,5.71,7.97,5.52,13.8,6.2,22.38,2.63,94.51,2.96,115.98-.43,39.83-6.29,41.14-63.19-4.73-70.81-22.16-3.68-88.44-3.84-111.24-1.16-5.82.68-10.28.5-13.8,6.2h-.01Z"/>
  <path class="st1" d="M5033.38,1096.13c34.6,37.46,41.04,88.66,24.47,135.73-1.51,4.28-14.93,32.43-16.27,33.73-2.5,2.44-9.31,2.05-12.79,5.04-5.5,4.73-31.26,25.18-30.03,30.08,74.45,32.53,97.74,114.97,62.82,186.88-25.2,51.88-70.76,66.21-124.87,71.13l-318.01-1.91c-7.2-6.43-7.35-14.97-8.14-23.86-6.33-70.77.02-149.65,0-220.03-.03-71.51-6.76-163.74-.04-232.39,1.3-13.3,2.09-21.17,18.05-21.95,99.37,5.38,200.48-5.49,299.51-2.3,34.14,1.1,81.59,14.17,105.31,39.85h-.01ZM4762.75,1184.77v58c32.63,2.68,118.7,14.15,142.25-7.75,23.92-22.25,7.38-52.07-20.52-55.99-21.95-3.08-85.62-3.08-107.93-.46-5.82.68-10.28.5-13.8,6.2ZM4768.75,1438.77h124c6.81,0,25.19-11.52,29.11-18.86,14.63-27.44-4.58-52.58-33.47-56.77-17.42-2.52-103.77-2.91-117.93,1.52-3.21,1-7.09,1.01-7.68,5.04l.59,62.46,5.39,6.62h-.01Z"/>
  <path class="st0" d="M4114.75,456.77c3.13-10.15,71.58-5.74,86.17-5.84,22.75-.15,47.93-8.12,72.12,3.55l161.51,237.65,12.19,2.65.02-248.02h146l2.25,498.25c-27.19,3.7-54.86,1.12-82.21,1.79-55.14,1.34-48.59,18.54-85.3-30.78-53.98-72.53-100.18-151.7-152.81-225.23-3.27-2.28-11.93,3.87-11.93,5.97v248l-6,6h-136l-6-6v-488h-.01Z"/>
  <path class="st0" d="M3912.75,454.77c126.62,17.12,178.11,182.34,101.9,277.9-16.05,20.13-38.81,28.73-51.84,47.97,17.93,49.77,60.44,102.42,76.81,151.24,2.14,6.4,4.31,11.86,3.13,18.86-54.39,1.97-110.43,10.56-164.07-1.92-20.21-25.52-48.08-134.29-65.89-150.11-10.19-9.05-43.35-1.56-58.05-3.95v154l-6,6h-142l2-500h304.01ZM3750.75,584.77v76c0,.69,6.17,7.06,8.06,7.94,10.71,5.01,80.75,2.81,96.16.28,25.49-4.18,43.17-16.79,44.13-44.18,2.32-66.27-96.98-46.39-138.35-46.04l-10,6h0Z"/>
  <path class="st0" d="M2516.15,893.37c-53.67-52-79.35-134.78-73.54-208.74,25.84-328.87,573.75-308.22,544.08,52.08-18.59,225.74-317.59,304.86-470.54,156.66h0ZM2693.78,583.81c-145.96,19.77-131.37,273.6,42.63,250.62,144.7-19.11,127.87-273.72-42.63-250.62Z"/>
  <path class="st0" d="M3370.75,454.77h146l6,6v316c0,250.92-480,253.88-480,4v-320l6-6h140l6,6v304c0,1.69,10.58,28.04,12.58,31.42,25.82,43.73,98.63,49.47,135.5,16.66,11.9-10.59,27.92-36.51,27.92-52.08v-306h0Z"/>
  <path class="st0" d="M4840.75,566.77c-1.96.32-9.55,4.28-10.14,6.75,2.49,11.91-5.88,52.58,6.7,56.7,45.11.04,90.5,1.85,135.61.72,25.74-.64,62.03-12.82,85.84,1.84v112c-6.1,7.11-12.92,9.03-21.92,10.08-61.8,7.22-136.29-6.01-199.52.48-10.6,3.47-8.54,61.71-2.81,65.7l228.25-2.25v122l-6,6h-374v-500c104.32-8.77,209.52-.82,314.16-3.83,20.01-.58-18.12.42,65.84,1.83v116l-6,6h-216v-.02h0Z"/>
  <path class="st1" d="M934.51,95.25c2.59-5.91,10.74-28.15,14.17-29.94,19.38-10.17,27.47,29.11,33.61,40.39,11.17,20.53,25.53,39.27,36.91,59.65,36.14,64.64,71.07,142.96,111.26,204,29.9,45.41,66.37,10.22,97.86-7.26,19.26-10.7,38.98-20.36,57.48-30.58,7.46-4.13,53.25-33.46,57.68-28.91l-51.11,264.13c-1.92-.95-18.45-5.45-21.22-5.77-35.21-3.97-56.53,12.33-70.29,43.48-2.54,5.75-.98,13.13-5.01,17.71-3.11,3.53-21.57,8.99-22.37,10.27l-.38,8.14,25.54-2.81c-2.45,8.49-.47,17.89-1.23,25.66-.38,3.87-4.54,8.39-4.34,12.82.21,4.66,7.37,9.37,9.4,15.9,2.34,7.54,1.02,15.02,3.07,22.49,3.17,4.66,31.65,2.44,32.86,15.39-.55,2.17-31.74,24.14-36.17,26.34-6.3,3.14-25.25,11.74-29.26,5.07-19.53-57.36-39.05-114.86-57.51-172.57-47.95-149.86-89.48-301.64-144.66-448.93-7.24-19.33-21.66-35.69-22.13-58.83l-14.17,14.18h.01,0Z"/>
  <path class="st1" d="M3201.09,1128.56c13.79,13.7,55.61,62.7,37.75,80.33l-113.57,49.34c-36.75-53.56-86.86-88.81-152.78-59.71-91.33,40.32-95.64,188.27-5.28,233.8,44.08,22.21,89.67,16.71,127.16-15.93,8.69-7.57,25.59-37.02,34.45-37.87l117.64,48.6c-59.53,182.3-330.01,190.87-441.75,51.7-59.03-73.52-68.83-205.64-22.63-286.72,81.35-142.76,300.44-181.32,419.02-63.54h0Z"/>
  <path class="st1" d="M943.03,1538.05c7.53-4.64,18.41-1.52,19.8-12.87l.67-161.22c3.67-9.46,17.58-13.13,21.84-20.76,4.89-8.77,10.37-37.92,18.77-46.56,3.68-3.78,10.73-3.55,15.47-7.25,6.5-5.06,13.95-21.08,20.07-28.21,5.32-6.18,32.28-35.57,34.11-17.15-5.43,15.95-3.22,35.53-5.91,51.04-2.25,13-14.23,41.54-22.72,51.12-6.84,7.73-23.78,9.69-33.94,23.65-25.25,34.71,14.66,38.25,40.5,31.18,15.34-4.19,36.2-14.34,52.41-18.58,11.57-3.02,25.27-.29,37.24-9.59,4.61-7.35-7.87-45.88-8.03-57.79-.52-37.91,17.61-84.26,22.36-122.45,2.32-18.64-.07-47.08,3.78-64.38,1.64-7.36,8.62-12.57,13.58-17.67l34.09-24.11,16.68,196.86c-16.23,10.64-9.29,15.59-11.01,31.74-1.15,10.81-3.71,37.8-7.77,46.18-4.09,8.44-16.48,9.59-21.27,18.49-6.87,12.77-2.67,27.89-5.69,39.75-2.75,10.82-22.6,22.32-22.07,34.5.57,12.92,17.96,15.49,21.62,27.17,2.24,8.17-10.25,16.42-9.56,29.15,1.5,27.61,40.12,41.02,58.11,18.39,9.17-11.52-1.27-36.83.85-38.93l19.5.36,20.26,101.88-282.94-53.61-40.83-.35.02.02Z"/>
  <path class="st1" d="M3446.75,1066.77l1.76,364.23c2.45,3.43,16,6.12,20.87,6.31,43.3,1.7,98.85-1.37,143.55-2.34,10.17-.22,19.39-8.09,25.82,1.8v108c0,.52-4.26,8.89-4.82,9.24-62.27,8.82-126.3,3.92-189.34,4.59-24.23.26-128.77,12.48-140.07-3.59l-1.77-488.23h144Z"/>
  <path class="st1" d="M2601.38,1268.13c24.8,27.78,44.4,75.19,45.54,112.43,8.02,261.27-426.46,262.9-387.14-30.75,20.11-150.16,244.98-189.93,341.6-81.68ZM2429.7,1299.72c-74.15,12.6-89.38,122.6-32.37,166.47,47.7,36.71,130.79,12.25,141.18-49.67,12.02-71.62-33.8-129.55-108.8-116.8h-.01Z"/>
  <path class="st1" d="M3850.75,1066.77v486l-6,6h-132c-.91,0-10-12.49-10-14v-478c12.17,4.23,148-7.79,148,0Z"/>
  <path class="st1" d="M2242.75,1214.77v88c-31,7.43-59.73-3.33-91.78,4.23l-1.96,256.02c-4.71,6.76-98.18,9.58-104.58-.14,1.57-5.94-1.67-14.26-1.67-18.11v-238h-90l-6-6v-80c0-1.08,7.64-8.47,10.46-9.03l285.54,3.03h-.01Z"/>
  <path class="st1" d="M2730.75,1074.77l-1.75,24.26-12.06,3.93h-760.39c-17.8.85-13.93-14.77-13.81-28.19h788.01Z"/>
  <path class="st1" d="M1300.89,666.12c-.28,9.25-.87,18.92,1.89,27.94,3.79,12.38,13.26,10.33,15.15,20.34-8.12-2.36-15.58-4.79-19.13-13.53-2.82-6.94-7.87-30.87,2.09-34.75Z"/>
  <path class="st1" d="M1320.77,615c-7.85,1.68-5.33-4.07-7-8.47-6.48-17-12.89-21.97-18.56-34.13,14.74,4.27,23.99,28.87,25.56,42.6Z"/>
  <path class="st1" d="M1320.77,620.68c.46,14.52-.74,16.1-5.68,28.4l-2.18-1.66,2.18-26.76,5.67.02h0Z"/>
  <path class="st1" d="M1312.25,657.6c-3.17,4.96-4.64,6.4-11.36,5.68.13-1.87-.18-3.8-.01-5.67h11.37Z"/>
  <path class="st1" d="M1320.77,714.41c10.01,2.14,2.98,1.07,5.68,5.68h-5.67v-5.68h0Z"/>
  <path class="st1" d="M1158.9,771.21c-6.89,6.71-67.97-13.38-77.72-20.27-6.71-4.74-7.68-11.14-15.81-15.44-10.05-5.32-21.34-3.96-32.01-7.75-8.17-2.9-19.31-14.17-24.18-15.58-13.25-3.85-32.59,1.33-46.25,2.25V166.26s195.97,604.95,195.97,604.95h0Z"/>
  <path class="st1" d="M1049.87,849.01c12.39,9.54,25.54,24.52,38.24,34.15,9.26,7.02,51.43,36.83,59.47,34.59,5.62-1.56,17.05-13.87,21.04-13.01,6.9,5.27,8.82,15.87,7.29,23.99-.55,2.9-29.78,38.51-35.26,47.2-25.11,39.86-51.79,77-77.15,115.98-27.03,41.56-43.56,72.08-77.93,109.52-6.55,7.14-8.28,23.25-22.64,21.35l-2.27-421.16c.88-2.95,4.15-6.7,7.08-7.41,4.42-1.07,38.39,19.42,43.2,24.12,4.94,4.83,8.8,15.61,12.84,18.4,6.28,4.36,15.09,3.79,26.1,12.27h0Z"/>
  <path class="st1" d="M1015.82,760.06c12.45-3.63,22.91,14.8,31.5,19.04,20.12,9.91,57.85,32.04,74.79,47.34,2.63,2.37,20.06,24.08,19.72,25.67-1.36,6.36-9.84,3.3-13.63,2.36-24.6-6.08-49.35-25.28-72.59-35.37-3.15-8.93-65.25-51.63-39.8-59.04h0Z"/>
  <path class="st1" d="M1206.74,1439.04c9.49,6.04-10.49,36.5-20.92,19.51-8.57-13.94,10.93-25.87,20.92-19.51Z"/>
  <path class="st1" d="M1197.68,1498.68c12.96-3.35,11.47,18.33,5.13,19.48-10.67,1.92-18.91-15.92-5.13-19.48Z"/>
  <path class="st1" d="M1297.43,1450.66c1.82.99,8.14,14.66,6.28,16.37-15.07,1.85-18.85-1.97-17.01-17.03,3.46.28,7.62-1.02,10.73.66h0Z"/>
  <rect class="st1" x="1215.71" y="1475.58" width="2.78" height="5.65"/>
  <path class="st1" d="M1222.78,1484.08c1.85.94,1.85,1.9,0,2.84v-2.84Z"/>
</svg>